<?xml version="1.0" encoding="UTF-8" standalone="no"?>
<!-- Created with Inkscape (http://www.inkscape.org/) -->

<svg
   xmlns:dc="http://purl.org/dc/elements/1.1/"
   xmlns:cc="http://creativecommons.org/ns#"
   xmlns:rdf="http://www.w3.org/1999/02/22-rdf-syntax-ns#"
   xmlns:svg="http://www.w3.org/2000/svg"
   xmlns="http://www.w3.org/2000/svg"
   xmlns:sodipodi="http://sodipodi.sourceforge.net/DTD/sodipodi-0.dtd"
   xmlns:inkscape="http://www.inkscape.org/namespaces/inkscape"
   width="210mm"
   height="297mm"
   viewBox="0 0 210 297"
   version="1.1"
   id="svg8"
   inkscape:version="0.92.3 (2405546, 2018-03-11)"
   sodipodi:docname="Symbol Scale of the Justice.svg">
  <defs
     id="defs2" />
  <sodipodi:namedview
     id="base"
     pagecolor="#ffffff"
     bordercolor="#666666"
     borderopacity="1.0"
     inkscape:pageopacity="0.0"
     inkscape:pageshadow="2"
     inkscape:zoom="0.24748737"
     inkscape:cx="286.85846"
     inkscape:cy="481.44564"
     inkscape:document-units="mm"
     inkscape:current-layer="layer1"
     showgrid="false"
     inkscape:window-width="1024"
     inkscape:window-height="703"
     inkscape:window-x="0"
     inkscape:window-y="0"
     inkscape:window-maximized="1" />
  <metadata
     id="metadata5">
    <rdf:RDF>
      <cc:Work
         rdf:about="">
        <dc:format>image/svg+xml</dc:format>
        <dc:type
           rdf:resource="http://purl.org/dc/dcmitype/StillImage" />
        <dc:title></dc:title>
      </cc:Work>
    </rdf:RDF>
  </metadata>
  <g
     inkscape:label="Capa 1"
     inkscape:groupmode="layer"
     id="layer1">
    <path
       style="fill:#000000;stroke-width:0.3615652"
       d="m 96.452451,235.18628 c -13.275908,-0.65391 -22.572135,-2.31412 -24.857601,-4.43932 -0.754565,-0.70165 -0.813532,-1.06432 -0.813532,-5.00448 0,-4.00671 0.05152,-4.30921 0.906307,-5.3251 0.525669,-0.62473 1.474762,-1.21069 2.259788,-1.3952 1.108651,-0.26058 1.374253,-0.49681 1.468381,-1.306 0.08404,-0.7228 0.480532,-1.17439 1.477605,-1.68306 3.113551,-1.58842 11.144575,-3.00207 19.841681,-3.49261 l 4.44062,-0.25046 -0.66134,-0.75862 c -1.728703,-1.98297 -1.736943,-1.84958 0.24373,-3.94385 l 1.84098,-1.94656 v -57.5197 -57.519699 l 1.07253,-0.763711 1.07254,-0.763714 -1.15878,-1.035363 c -1.13053,-1.010134 -1.14272,-1.053098 -0.50018,-1.76309 0.6386,-0.705648 0.63638,-0.739599 -0.0728,-1.119142 -0.49304,-0.263862 -0.76792,-0.832905 -0.84353,-1.746207 -0.10044,-1.213167 -0.30115,-1.45679 -1.91998,-2.330458 -3.109645,-1.678241 -7.315045,-2.872618 -10.85966,-3.084259 -3.925908,-0.23441 -7.068265,0.335304 -13.523991,2.451929 -2.473652,0.811031 -5.225547,1.610606 -6.115319,1.776833 -2.06813,0.386367 -5.045887,-0.0424 -9.795781,-1.41051 -2.077163,-0.598285 -3.848397,-1.016049 -3.936075,-0.928366 -0.08773,0.08768 0.2112,1.018569 0.66421,2.068641 1.656157,3.839063 0.997933,7.241522 -1.661556,8.588887 l -1.052171,0.533063 1.265475,0.190068 1.265476,0.190071 0.219099,6.626832 c 0.200567,6.066305 0.282656,6.690395 0.970602,7.378335 0.709101,0.7091 0.817345,0.71961 1.918453,0.18633 1.38882,-0.67263 2.066271,-0.4884 2.349187,0.63888 0.299041,1.19148 -0.445576,2.33592 -1.680564,2.58292 -0.58577,0.11715 -1.065031,0.32993 -1.065031,0.47284 0,0.60615 9.258592,26.41073 15.895795,44.30307 1.401597,3.77836 4.784563,12.92919 7.517709,20.33517 l 4.969361,13.46543 1.265476,0.20895 c 5.46774,0.90275 5.949597,1.18844 5.019567,2.97599 -0.912989,1.7548 -5.330211,6.08602 -8.541278,8.37497 -18.356028,13.08475 -45.966672,13.47462 -63.597282,0.89804 -4.601897,-3.2827 -9.532831,-8.61784 -9.532831,-10.31426 0,-0.91009 1.208901,-1.61709 3.689441,-2.15768 1.693423,-0.36906 2.123653,-0.61772 2.404847,-1.38995 0.188351,-0.51727 3.29992,-8.913 6.914584,-18.65718 11.650634,-31.40694 20.992982,-57.22739 20.970434,-57.95829 -0.0041,-0.13954 -0.533089,-0.49776 -1.175079,-0.79605 -0.887476,-0.41235 -1.189851,-0.80235 -1.261458,-1.62705 -0.161102,-1.85515 0.33069,-2.21844 2.075386,-1.5331 1.424023,0.55937 1.528974,0.55389 2.197693,-0.11483 0.386226,-0.38623 0.715222,-0.82427 0.731074,-0.97342 0.01585,-0.14914 0.219249,-3.11849 0.451958,-6.598561 0.410537,-6.139275 0.447311,-6.330825 1.236642,-6.442929 0.985142,-0.139911 1.063732,-0.660231 0.143829,-0.952199 -0.368339,-0.116908 -1.125433,-1.049873 -1.682423,-2.073266 l -1.012733,-1.860715 0.81856,-0.662837 c 1.118176,-0.905445 2.202612,-0.822072 3.216972,0.247326 1.042223,1.098753 1.354902,1.118824 1.888812,0.121213 0.673789,-1.258995 -0.148694,-3.310368 -1.875693,-4.678172 l -1.471387,-1.165369 -0.841847,1.050214 -0.841861,1.050212 -1.656868,-1.723784 c -0.911281,-0.94808 -1.656882,-1.934543 -1.656882,-2.192136 0,-0.555842 1.632175,-2.139316 2.855151,-2.769955 0.73169,-0.377304 0.91836,-0.354247 1.199527,0.14818 0.297538,0.531664 0.447079,0.499022 1.404467,-0.306575 1.196862,-1.007085 3.316306,-1.712718 4.239694,-1.411532 0.333178,0.108668 1.964696,0.869428 3.625609,1.690574 2.522316,1.24701 3.445649,1.512926 5.604272,1.613981 l 2.584411,0.12098 5.604258,-2.879596 c 7.467776,-3.837119 9.532517,-4.462013 14.824177,-4.486542 4.624186,-0.02144 7.498441,0.527593 11.818973,2.257616 1.484059,0.594243 2.767339,1.08044 2.851739,1.08044 0.0845,0 0.15346,-0.981331 0.15346,-2.180739 0,-1.604894 0.14321,-2.235694 0.54235,-2.388858 0.35439,-0.135985 0.54234,-0.699049 0.54234,-1.624644 0,-1.188957 -0.14943,-1.473345 -0.93022,-1.770195 -1.35088,-0.513607 -1.00252,-1.539407 0.6629,-1.951984 1.68426,-0.417246 1.78732,-1.334071 0.29146,-2.592755 -1.90892,-1.606252 -2.28245,-4.355182 -0.88216,-6.49228 0.72119,-1.100671 2.98546,-2.330891 4.2901,-2.330891 2.80682,0 5.24549,2.414966 5.24549,5.19451 0,1.478481 -0.18719,1.894463 -1.4871,3.304708 -1.62782,1.76597 -1.64788,2.479309 -0.0808,2.872628 2.05029,0.514586 2.31881,1.376897 0.62885,2.019419 -1.1315,0.430198 -1.21755,2.451464 -0.14566,3.421516 0.55132,0.49893 0.72313,1.113609 0.72313,2.586995 0,1.062912 0.0611,1.93257 0.13584,1.93257 0.0747,0 1.04335,-0.401366 2.15259,-0.891928 3.62718,-1.60411 7.68235,-2.455877 11.81266,-2.481186 5.34894,-0.03277 7.84174,0.685996 15.07553,4.346849 l 6.07603,3.074942 2.53095,-0.15966 c 2.09797,-0.13235 3.11363,-0.44773 5.9369,-1.843556 1.87327,-0.926142 3.59941,-1.683896 3.83588,-1.683896 0.23645,0 1.38609,0.482295 2.55473,1.071769 1.23446,0.622678 2.25904,0.937524 2.44517,0.751387 0.70073,-0.700714 3.84794,1.400144 3.84794,2.568603 0,0.939875 -1.14662,2.560037 -2.38692,3.372712 -0.94363,0.618287 -0.97278,0.611743 -1.77911,-0.399489 l -0.81976,-1.028086 -1.66511,1.66511 c -1.42745,1.427451 -1.66511,1.872792 -1.66511,3.120257 0,1.929209 0.81617,2.258018 2.12555,0.856319 0.95235,-1.01949 1.00073,-1.030048 2.31608,-0.505414 0.78913,0.314747 1.34285,0.780935 1.34206,1.129892 -0.001,0.858597 -1.33823,2.993004 -2.46466,3.936751 l -0.96886,0.811728 0.98742,0.0018 c 1.23527,0.0022 1.26639,0.144688 1.5008,6.871536 0.25254,7.246292 0.83127,8.593582 3.17158,7.383362 1.60972,-0.83242 2.17768,-0.45649 2.04442,1.35318 -0.0972,1.32007 -0.24894,1.5561 -1.19604,1.86063 -0.59658,0.19183 -1.13063,0.38599 -1.18677,0.43147 -0.16095,0.13041 4.38787,12.98283 11.0689,31.27448 12.4928,34.20338 17.1195,46.4724 17.69112,46.91308 0.32245,0.24858 0.95392,0.45196 1.40327,0.45196 1.11903,0 4.17447,0.67636 4.79436,1.06129 0.81544,0.50637 -0.93404,3.08761 -4.22132,6.22825 -16.05501,15.33888 -44.78917,18.58369 -64.33634,7.2652 -5.73797,-3.3225 -11.42612,-8.51603 -13.04485,-11.91054 -0.52296,-1.09668 -0.52445,-1.26576 -0.0156,-1.77456 0.30931,-0.30931 1.66659,-0.84105 3.01617,-1.18165 l 2.4538,-0.61926 3.33367,-9.02545 c 1.83351,-4.96402 5.32415,-14.39471 7.75694,-20.95712 9.02717,-24.35052 17.00487,-46.63025 17.00487,-47.49035 0,-0.22937 -0.31378,-0.41704 -0.6973,-0.41704 -1.05327,0 -1.83365,-0.99474 -1.83365,-2.33731 0,-1.47527 0.73613,-1.83872 2.19556,-1.08402 0.79944,0.4134 1.24457,0.45468 1.78492,0.1655 0.39592,-0.2119 0.74441,-0.42021 0.77442,-0.46293 0.0301,-0.0427 0.15204,-3.16905 0.27117,-6.947404 l 0.21662,-6.869739 1.26548,-0.192953 1.26548,-0.192949 -1.16897,-0.62669 c -1.7355,-0.930413 -2.39009,-2.470199 -2.17725,-5.121582 0.0992,-1.235861 0.52648,-2.88845 0.97323,-3.76415 0.43802,-0.85858 0.70974,-1.647704 0.60383,-1.753606 -0.1059,-0.105907 -1.62226,0.254596 -3.36969,0.801109 -4.49806,1.406785 -7.97266,1.955167 -10.17861,1.606456 -1.00941,-0.159566 -4.07733,-1.018515 -6.81761,-1.908774 -2.74029,-0.890261 -6.2508,-1.819245 -7.80116,-2.064408 -5.08053,-0.803397 -10.59844,0.105771 -15.6071,2.571517 -2.13948,1.05326 -2.36406,1.268526 -2.36406,2.265973 0,0.629644 -0.33277,1.456359 -0.7762,1.928372 -0.6677,0.710735 -0.70733,0.909206 -0.28353,1.419865 0.42933,0.517299 0.34473,0.725846 -0.65789,1.621683 l -1.15058,1.028041 1.07253,0.763713 1.07254,0.763712 v 57.680174 57.68019 l 1.80783,1.62538 c 0.9943,0.89397 1.80783,1.80596 1.80783,2.02663 0,0.22068 -0.48856,0.9053 -1.08565,1.52136 l -1.08567,1.12011 6.25677,0.43974 c 9.11912,0.64092 15.91583,1.84834 18.42196,3.27267 0.67325,0.38262 0.99493,0.86099 0.99622,1.48144 0.001,0.77202 0.26794,1.00178 1.69098,1.45869 2.7798,0.89258 3.13079,1.69039 3.05338,6.94027 -0.075,5.09204 -0.10236,5.14255 -3.44759,6.39419 -6.32482,2.3664 -26.49171,3.75096 -42.878674,2.94381 z m -9.76226,-48.09248 c 0,-0.19692 -2.66803,-7.5593 -5.928949,-16.36082 -11.07495,-29.8923 -16.324316,-44.33591 -21.806296,-59.99997 -0.421306,-1.20381 -0.834317,-1.75465 -1.427193,-1.90345 -1.159199,-0.29094 -1.859404,-1.842 -2.149849,-4.7622 -0.281522,-2.83053 -0.67066,-4.114286 -1.247164,-4.114286 -0.395848,0 -0.316315,2.775966 0.22082,7.707986 0.210174,1.92971 0.166418,2.12012 -0.528908,2.30195 -0.757312,0.19804 -0.758023,0.21567 -0.75764,18.86705 2.05e-4,10.26785 0.10782,27.06416 0.2392,37.32513 l 0.238804,18.6563 6.020316,0.22729 c 7.861778,0.29682 22.061594,1.54825 26.855682,2.36677 0.149145,0.0254 0.271177,-0.11479 0.271177,-0.31175 z M 187.91102,167.92732 c -6.58012,-17.74933 -17.15129,-46.7739 -20.03909,-55.02005 -1.18355,-3.37964 -1.48472,-3.91386 -2.42626,-4.30386 -1.54641,-0.64055 -2.01033,-1.60071 -2.29539,-4.75088 -0.13884,-1.53422 -0.47273,-3.07991 -0.74198,-3.43487 -0.57697,-0.760603 -0.601,-0.638524 -0.51304,2.60538 0.0324,1.19133 0.24452,2.28086 0.47157,2.42119 0.23055,0.14249 0.41723,1.18158 0.42282,2.35351 0.008,1.83428 -0.0924,2.14329 -0.80351,2.45529 l -0.81352,0.35691 v 37.09854 37.09852 l 6.23699,0.22658 c 6.385,0.23196 16.64658,1.03028 23.41136,1.82134 2.59321,0.30325 3.82762,0.32495 3.89481,0.0685 0.0541,-0.2065 -3.00804,-8.75474 -6.80476,-18.99608 z M 24.01463,186.19854 c 6.311883,-0.72052 16.395363,-1.27765 23.124288,-1.27765 h 5.56415 v -37.07178 c 0,-34.97648 -0.0358,-37.08497 -0.632738,-37.30523 -0.348018,-0.1284 -0.752283,-0.40803 -0.89838,-0.62139 -0.467632,-0.68293 -0.295133,-3.66025 0.254136,-4.38644 0.597071,-0.78941 0.780489,-5.582976 0.213619,-5.582976 -0.606118,0 -0.804458,0.704166 -1.094426,3.885516 -0.262718,2.88242 -0.373422,3.20529 -1.419458,4.13992 -0.623978,0.55753 -1.336782,1.01369 -1.584004,1.01369 -0.247208,0 -0.807669,1.0169 -1.245456,2.25978 -6.134942,17.41714 -13.966902,38.91464 -23.611762,64.81057 -4.025269,10.80764 -3.977181,10.66617 -3.625445,10.66617 0.171118,0 2.401088,-0.23858 4.955476,-0.53018 z m 108.10799,0.005 c 6.38741,-0.72087 16.43416,-1.28365 22.91556,-1.28365 h 5.41132 v -36.85008 c 0,-20.26755 0.0988,-37.10744 0.21945,-37.422 0.15735,-0.40999 0.004,-0.57192 -0.54234,-0.57192 -0.66138,0 -0.76181,-0.21361 -0.76181,-1.62033 0,-0.89118 0.18954,-2.72564 0.4212,-4.07657 0.41686,-2.43099 0.23484,-4.426918 -0.40372,-4.426918 -0.48245,0 -0.75346,1.087398 -1.08114,4.337828 -0.30645,3.03984 -0.63319,3.71524 -2.18583,4.51814 -0.81508,0.42149 -1.33173,1.57493 -3.59277,8.02098 -4.55245,12.97866 -25.04161,68.7666 -25.56955,69.62081 -0.22453,0.36329 -0.23641,0.36385 5.16963,-0.24628 z M 53.577398,94.671696 c 0.314565,-0.120707 0.571927,-0.511195 0.571927,-0.867757 0,-0.49986 -0.289735,-0.648289 -1.265476,-0.648289 -0.981863,0 -1.265476,0.147207 -1.265476,0.656844 0,0.879826 0.889102,1.269773 1.959025,0.859202 z M 161.83713,93.846384 c 0.0995,-0.70323 -0.008,-0.829764 -0.5814,-0.680022 -0.38694,0.101193 -0.9835,0.0273 -1.3257,-0.164204 -0.5201,-0.291064 -0.60267,-0.209166 -0.50331,0.499235 0.1452,1.035196 0.61195,1.423323 1.56512,1.30145 0.45226,-0.05783 0.76889,-0.416101 0.84529,-0.956459 z"
       id="path1279"
       inkscape:connector-curvature="0" />
  </g>
</svg>
