<?xml version="1.0"?>
<svg xmlns:rdf="http://www.w3.org/1999/02/22-rdf-syntax-ns#" xmlns="http://www.w3.org/2000/svg" xmlns:cc="http://web.resource.org/cc/" xmlns:xlink="http://www.w3.org/1999/xlink" xmlns:dc="http://purl.org/dc/elements/1.1/" xmlns:svg="http://www.w3.org/2000/svg" id="svg6460" viewBox="0 0 703.02 519.03" version="1.0">
  <g id="layer1" stroke="#000" transform="translate(-31.559 -202.57)">
    <path id="path2284" stroke-linejoin="round" stroke-width=".99248" stroke-linecap="round" d="m694.72 262.14c8.21-1.57 14.71-6.4 16.33-11.61 1.16 0.53 2.4 0.71 3.64 0.47 1.84-0.35 3.44-1.57 4.68-3.36 0.57 0.07 1.16 0.07 1.75-0.05 3.81-0.72 6.45-5.26 5.89-10.12-0.48-4.14-3.13-7.17-6.26-7.54-1.48-3.96-4.02-6.76-6.85-7.48-0.01-0.07-0.01-0.13-0.01-0.19-0.4-3.38-3.88-5.54-7.98-5.13-2.72-5-7.78-7.89-13.14-6.86-5.6 1.07-9.91 6.08-11.19 12.24-3.79-1.74-8.57-2.33-13.64-1.37-10.98 2.1-19.1 10.7-18.11 19.19 0.79 6.82 7.2 11.5 15.37 12.01v0.1c0.42 3.58 4.96 5.68 10.14 4.69 0.34-0.06 0.65-0.17 0.98-0.26 2.61 4.55 10.05 6.86 18.4 5.27z"/>
    <path id="path2288" stroke-linejoin="round" d="m690.41 264.45c8.2-1.57 14.71-6.4 16.33-11.61 1.16 0.53 2.39 0.72 3.64 0.48 1.83-0.35 3.43-1.57 4.68-3.37 0.57 0.08 1.15 0.07 1.75-0.04 3.81-0.73 6.45-5.27 5.88-10.13-0.48-4.14-3.12-7.17-6.25-7.54-1.48-3.95-4.02-6.75-6.86-7.48 0-0.06 0-0.12-0.01-0.18-0.39-3.39-3.88-5.54-7.97-5.13-2.73-5.01-7.78-7.89-13.15-6.87-5.6 1.07-9.9 6.09-11.18 12.25-3.8-1.74-8.58-2.34-13.64-1.37-10.99 2.1-19.1 10.69-18.11 19.19 0.79 6.81 7.19 11.49 15.36 12 0.01 0.04 0 0.07 0.01 0.1 0.41 3.59 4.96 5.69 10.14 4.7 0.33-0.07 0.65-0.17 0.98-0.26 2.6 4.55 10.04 6.86 18.4 5.26z" stroke-linecap="round" stroke-width=".99248" fill="#fff"/>
    <path id="path2296" stroke-linejoin="round" d="m957.22 516.69a149.34 130.36 0 1 1 -298.67 0 149.34 130.36 0 1 1 298.67 0z" transform="matrix(0 1.5051 -1.7866 0 1249.7 -730.58)" stroke-linecap="round" stroke-miterlimit="8.3" stroke-width="5.4269"/>
    <path id="path2286" stroke-linejoin="round" d="m692.13 609.92a315.4 319.78 0 1 1 -630.8 0 315.4 319.78 0 1 1 630.8 0z" transform="matrix(0 .27554 -.24741 0 739.81 206.36)" stroke-linecap="round" stroke-width="9.8443"/>
    <path id="path2290" stroke-linejoin="round" d="m692.13 609.92a315.4 319.78 0 1 1 -630.8 0 315.4 319.78 0 1 1 630.8 0z" transform="matrix(0 .27554 -.24741 0 746.51 201.56)" stroke-linecap="round" stroke-width="9.8443" fill="#fff"/>
    <path id="path2292" stroke-linejoin="round" stroke-width="1.6907" stroke-linecap="round" d="m657.64 337.84c15.08 2.47 27.05 10.09 30.03 18.31 2.14-0.84 4.4-1.12 6.69-0.75 3.38 0.55 6.33 2.48 8.61 5.31 1.05-0.12 2.13-0.11 3.22 0.07 7.01 1.15 11.86 8.31 10.83 15.98-0.89 6.53-5.75 11.31-11.5 11.89-2.73 6.25-7.4 10.66-12.62 11.81-0.01 0.09 0 0.19-0.01 0.29-0.73 5.34-7.14 8.74-14.67 8.09-5.02 7.9-14.31 12.45-24.18 10.83-10.3-1.69-18.22-9.6-20.58-19.32-6.97 2.75-15.77 3.69-25.08 2.16-20.2-3.31-35.12-16.87-33.31-30.28 1.45-10.74 13.24-18.13 28.26-18.93 0.01-0.06 0-0.11 0.01-0.17 0.77-5.65 9.12-8.96 18.65-7.4 0.62 0.1 1.2 0.27 1.8 0.41 4.79-7.18 18.48-10.82 33.85-8.3z"/>
    <path id="path2294" stroke-linejoin="round" d="m656 332.64c15.08 2.47 27.05 10.1 30.03 18.32 2.14-0.84 4.4-1.13 6.69-0.75 3.38 0.55 6.33 2.47 8.61 5.31 1.05-0.12 2.13-0.11 3.22 0.07 7.01 1.14 11.86 8.3 10.82 15.97-0.88 6.53-5.75 11.32-11.5 11.9-2.72 6.24-7.39 10.66-12.61 11.8-0.01 0.1 0 0.2-0.02 0.29-0.72 5.35-7.14 8.74-14.67 8.09-5.01 7.9-14.3 12.45-24.17 10.84-10.3-1.69-18.22-9.6-20.58-19.32-6.98 2.74-15.77 3.68-25.08 2.16-20.2-3.31-35.13-16.88-33.31-30.28 1.45-10.75 13.23-18.13 28.26-18.94 0.01-0.05 0-0.11 0.01-0.16 0.76-5.65 9.12-8.96 18.65-7.4 0.62 0.1 1.2 0.27 1.8 0.4 4.79-7.17 18.47-10.82 33.85-8.3z" stroke-linecap="round" stroke-width="1.6907" fill="#fff"/>
    <path id="path2298" stroke-linejoin="round" d="m957.22 516.69a149.34 130.36 0 1 1 -298.67 0 149.34 130.36 0 1 1 298.67 0z" transform="matrix(0 1.5051 -1.7866 0 1259 -744.77)" stroke-linecap="round" stroke-miterlimit="8.3" stroke-width="5.4269" fill="#fff"/>
    <path id="path2304" stroke-linejoin="round" d="m211.01 308.16c-20.12 1.55-13.38 18.29 0 0z" stroke-linecap="round" stroke-miterlimit="8.3" stroke-width="2.9133"/>
    <path id="path2308" stroke-linejoin="round" d="m180.6 342.54c-12.76 3.01-18.81 33.19-1.01 16.55 2.04-5.94 3.83-12.15 1.01-16.55z" stroke-linecap="round" stroke-miterlimit="8.3" stroke-width="2.9133"/>
    <path id="path2300" stroke-linejoin="round" d="m284.83 287.43c-10.17-0.77-80.65 13.75-73.26 44.87 13.78 6.3 54.26-17.17 35.8 12.87-20.98 9.52-49.58 3.26-55.94 29.59-17.99 19.72-62.57 16.47-60.91 48.97 10.19 33.21 34.75-10.31 54-13.39 11.49-4.37 15.2 19.38 17.41 0.56 5.35-18.38 15.46 2.32 19.89 1.9 4.06-14.01 20.28-18.43 24.16-13.05 25.09 10.98 11.4 51.78-17.05 39.49-30.26 7.83-65.61-3.26-91.84 14.74-33.63 14.15-35.54 56.78-12.19 79.41 18.73 18.53 54.16 3.02 59.4 34.19 14.42 36.55 80.54 70.74 87.75 67.72 10.1-5.89-4.26-41.41-2.73-61.87-10.22-28.17 22.21-57.26 8.73-82.12-16.28-4.32-7.45-51.06 7.72-22.34 22.09 41.84 70.95 67.04 42.9-2.52-15.12-32.97 14.76-34.17 19.48-13.24 18.68 49.49 23.94 72.86 42 19.45 5.73-23.1 18.63-61.56 43.02-34.4 13.41 14.44 10.13 40.1 33.68 42.4 4.79-5.62-34.47-33.58-9.84-36.53 22.33 27.57 30.42 11.42 25.8-8.32-0.26-25.57-15.04-52.88 7.83-73.59 14.34-9.39 36.58-15.88 18-33.69-20.28-15.28-40.97-44.55-70.57-38.95-24.34 5.61-45.62 21.4-71.97 16.45-34.18-2.88-64.15 20.68-97.74 19.11-10.46-10.87 31.38-36.37 16.47-37.71z" stroke-linecap="round" stroke-miterlimit="8.3" stroke-width="2.9133"/>
    <path id="path2312" stroke-linejoin="round" d="m155.43 349.52c-3.75 4.38 7.48 0.78 0 0z" stroke-linecap="round" stroke-miterlimit="8.3" stroke-width="2.9133"/>
    <path id="path2316" stroke-linejoin="round" d="m470.18 487.22c-0.07 4.67 5.03 4.7 12.39 6.52 6.9 1.71 11.75-1.27 19.68 1.02 7.92 2.29 18.94-11.41 27.82 9.81 0 0 23.89 6.46 21.83 2.19s-14.63-4.29-14.82-9.4c-1.12-29.38-14.52-22.08-20.98-17.49-6.63 4.7-20.08 9.95-26.02 4.78-15.14-13.18-17.26-0.19-19.9 2.57z" stroke-linecap="round" stroke-miterlimit="7.6857" stroke-width="2.3306"/>
    <path id="path2320" stroke-linejoin="round" d="m285.87 578.58c-16.78 13.39 12.8 34.21 8.66 8.48-1.42-3.75-4.56-7.03-8.66-8.48z" stroke-linecap="round" stroke-miterlimit="7.6857" stroke-width="2.3306"/>
    <g id="g2328" stroke-width="14.809" stroke-miterlimit="7.6857" transform="matrix(.19116 .024703 -.060871 .20258 424.32 500.27)">
      <path id="path2330" d="m904.78 431.88c-2.61-0.06-5.2 0.4-7.44 1.12-6.84 2.42-13.83 5.48-22.03 4.5-2.48-0.47-11.72-0.42-8.56 2.53 3.01 1.24 10.38 2.83 13.03 5 8.27 5.29 1.32 9.2-5.22 7.53-2.94-0.19-7.05-0.22-7.53 2.85-0.6 4.35 4.78 7.82 5.41 12.09 0.56 4.43 1.94 9.62 6.56 12.72 3.92 1.85 5.9 5.66 7 9.12 1.3 3.82 2.84 8.59 7.47 10.54 5.79 2.31 10.92-0.4 16.31-0.63 2.99 0.11 6.38 0.19 8.1-2.03 2.27-2.33 2.06-6.15-0.1-9.22-2.42-4.9-6.9-9.88-6.28-15.09 0.87-3.24 3.52-4.91 4.88-7.97 0.61-1.36 4.3 0.33 5.03-0.44s-0.68-2.1-0.25-2.81c0.42-0.71 2.42-0.56 3.18-0.66 2.15-1.02 6.22-5.22 4.44-6.78-1.72-1.52 2.84-3.67 2.53-5.31-0.21-1.4-10.84-9.59-16.87-13.78-2.89-2.29-6.3-3.22-9.66-3.28zm31.75 18.43c-0.47-0.01-0.66 0.34-0.34 1.28 0.54 2.96-1.64 4.13 0.69 4.6 2 0.17 5.66-1.67 4.5-2.6-1.4-1.43-3.81-3.25-4.85-3.28z" transform="matrix(2.1471 6.7427 -7.8276 .95449 2044.6 -6239.4)" stroke="#000" stroke-miterlimit="7.6857" stroke-width="2"/>
    </g>
    <g id="g2504" fill="#fff" transform="translate(888.05 30.118)">
      <path id="path2306" stroke-linejoin="round" d="m-674.83 274.88c-20.12 1.55-13.38 18.29 0 0z" stroke-linecap="round" stroke-miterlimit="8.3" stroke-width="2.9133"/>
      <path id="path2310" stroke-linejoin="round" d="m-704.67 307.97c-12.75 3.01-18.81 33.2-1 16.56 2.04-5.59 3.83-12.16 1-16.56z" stroke-linecap="round" stroke-miterlimit="8.3" stroke-width="2.9133"/>
      <path id="path2302" stroke-linejoin="round" d="m-599.01 252.15c-5.88-3.45-80.64 13.75-73.26 44.87 13.78 6.3 54.27-17.17 35.8 12.87-20.98 9.52-49.58 3.26-55.94 29.59-17.99 19.72-62.57 16.47-60.9 48.97 10.18 33.21 34.75-12.31 54-15.39 13.63-5.08 12.69 19.74 17.4 0.56 5.36-18.38 11.68 4.82 16.11 4.4 1.92-24.01 23.71-26.79 27.95-13.55 25.09 10.98 11.39 51.78-17.06 39.49-30.26 7.83-65.6-3.26-91.84 14.74-33.62 14.15-35.53 56.78-12.19 79.41 18.73 18.53 54.17 3.02 59.41 34.19 14.41 36.55 71.96 69.67 84.53 63.43 14.39-5.53-1.04-37.12 0.49-57.58-10.23-28.17 22.21-57.26 8.72-82.12-16.27-4.32-7.44-51.06 7.72-22.34 22.1 41.84 70.95 67.04 42.9-2.52-15.12-32.97 14.05-34.89 19.49-13.24 18.68 49.49 23.93 72.85 41.99 19.45 5.74-22.03 18.64-61.56 43.02-34.4 13.41 14.44 6.6 35.81 30.15 38.1 1.76-4.85-26.14-39.13-6.3-32.23 12.47 17.47 30.26 14.33 27.82-8.32-2.44-22.66-17.06-52.88 5.8-73.59 14.34-9.39 36.59-15.88 18-33.69-20.27-15.28-40.96-44.55-70.56-38.95-24.34 5.61-45.63 21.4-71.98 16.45-34.18-2.88-87.36 21.75-96.31 17.33-10.45-10.88 25.67-26.73 15.04-35.93z" stroke-linecap="round" stroke-miterlimit="8.3" stroke-width="2.9703"/>
      <path id="path2314" stroke-linejoin="round" d="m-731.52 315.38c-4.92 8.42 9.82 1.5 0 0z" stroke-linecap="round" stroke-miterlimit="8.3" stroke-width="1.413"/>
      <path id="path2318" stroke-linejoin="round" d="m-413.66 451.94c-0.07 4.67 5.03 4.7 12.39 6.52 6.91 1.71 11.76-1.27 19.68 1.02 7.93 2.29 18.95-11.41 27.82 9.81 0 0 23.9 6.46 21.84 2.19-2.07-4.27-14.63-4.29-14.83-9.4-1.12-29.38-17.5-22.22-25.52-18-8.23 4.33-15.54 10.46-21.47 5.29-15.15-13.18-17.26-0.19-19.91 2.57z" stroke-linecap="round" stroke-miterlimit="7.6857" stroke-width="2.3306"/>
      <path id="path2322" stroke-linejoin="round" d="m-597.97 543.3c-16.77 13.39 12.81 34.21 8.66 8.48-1.42-3.75-4.56-7.03-8.66-8.48z" stroke-linecap="round" stroke-miterlimit="7.6857" stroke-width="2.3306"/>
      <g id="g2332" stroke-width="14.809" stroke-miterlimit="7.6857" transform="matrix(.19116 .024703 -.060871 .20258 -460.15 465.19)">
        <path id="path2334" d="m904.78 431.88c-2.61-0.06-5.2 0.4-7.44 1.12-6.84 2.42-13.83 5.48-22.03 4.5-2.48-0.47-11.72-0.42-8.56 2.53 3.01 1.24 10.38 2.83 13.03 5 8.27 5.29 1.32 9.2-5.22 7.53-2.94-0.19-7.05-0.22-7.53 2.85-0.6 4.35 4.78 7.82 5.41 12.09 0.56 4.43 1.94 9.62 6.56 12.72 3.92 1.85 5.9 5.66 7 9.12 1.3 3.82 2.84 8.59 7.47 10.54 5.79 2.31 10.92-0.4 16.31-0.63 2.99 0.11 6.38 0.19 8.1-2.03 2.27-2.33 2.06-6.15-0.1-9.22-2.42-4.9-6.9-9.88-6.28-15.09 0.87-3.24 3.52-4.91 4.88-7.97 0.61-1.36 4.3 0.33 5.03-0.44s-0.68-2.1-0.25-2.81c0.42-0.71 2.42-0.56 3.18-0.66 2.15-1.02 6.22-5.22 4.44-6.78-1.72-1.52 2.84-3.67 2.53-5.31-0.21-1.4-10.84-9.59-16.87-13.78-2.89-2.29-6.3-3.22-9.66-3.28zm31.75 18.43c-0.47-0.01-0.66 0.34-0.34 1.28 0.54 2.96-1.64 4.13 0.69 4.6 2 0.17 5.66-1.67 4.5-2.6-1.4-1.43-3.81-3.25-4.85-3.28z" transform="matrix(2.1471 6.7427 -7.8276 .95449 2044.6 -6239.4)" stroke="#000" stroke-miterlimit="7.6857" stroke-width="2" fill="#fff"/>
      </g>
    </g>
    <path id="path2324" stroke-linejoin="round" d="m374.33 661.95c-37.69 3.78-76.33 6.88-111.47 20.91 44.92 17.27 95.82 8.12 141.19-2.74 16.34-2.53 22.21-14.36 0.66-15.02-10.01-1.89-20.27-1.98-30.38-3.15z" stroke-linecap="round" stroke-miterlimit="7.6857" stroke-width="2.3306"/>
    <path id="path2326" stroke-linejoin="round" d="m380.55 664.79c-37.69 3.78-76.34 6.88-111.47 20.9 44.92 17.27 95.82 8.13 141.19-2.74 16.34-2.52 22.21-14.36 0.65-15.02-10-1.88-20.26-1.97-30.37-3.14z" stroke-linecap="round" stroke-miterlimit="7.6857" stroke-width="2.3306" fill="#fff"/>
    <path id="path2337" stroke-linejoin="round" stroke-width=".79733" d="m87.906 239.48c-5.608-1.82-11.225-2.98-16.752-3.52 15.816 17.12 22.7 41.25 16.024 64.09-6.751 23.09-25.666 39.07-48.219 43.67 5.027 2.98 10.487 5.47 16.324 7.36 36.066 11.68 72.647-3.83 81.657-34.64 9-30.8-12.97-65.28-49.034-76.96z"/>
    <path id="path2339" stroke-linejoin="round" stroke-width=".79733" fill="#fff" d="m93.843 241.98c-5.607-1.82-11.225-2.97-16.752-3.52 15.816 17.12 22.701 41.25 16.024 64.09-6.751 23.1-25.665 39.07-48.219 43.68 5.027 2.97 10.487 5.46 16.324 7.35 36.067 11.69 72.65-3.83 81.65-34.63 9.01-30.8-12.96-65.29-49.027-76.97z"/>
  </g>
  <metadata>
    <rdf:RDF>
      <cc:Work>
        <dc:format>image/svg+xml</dc:format>
        <dc:type rdf:resource="http://purl.org/dc/dcmitype/StillImage"/>
        <cc:license rdf:resource="http://creativecommons.org/licenses/publicdomain/"/>
        <dc:publisher>
          <cc:Agent rdf:about="http://openclipart.org/">
            <dc:title>Openclipart</dc:title>
          </cc:Agent>
        </dc:publisher>
        <dc:title>Aussie Earth Outline</dc:title>
        <dc:date>2008-01-03T10:58:32</dc:date>
        <dc:description>Outline version of earth from a more Aussie (Down Under) perspective.</dc:description>
        <dc:source>http://openclipart.org/detail/10468/aussie-earth-outline-by-rygle</dc:source>
        <dc:creator>
          <cc:Agent>
            <dc:title>rygle</dc:title>
          </cc:Agent>
        </dc:creator>
        <dc:subject>
          <rdf:Bag>
            <rdf:li>Africa</rdf:li>
            <rdf:li>Antarctica</rdf:li>
            <rdf:li>Asia</rdf:li>
            <rdf:li>Aussie</rdf:li>
            <rdf:li>Australia</rdf:li>
            <rdf:li>China</rdf:li>
            <rdf:li>Earth</rdf:li>
            <rdf:li>Europe</rdf:li>
            <rdf:li>Ice</rdf:li>
            <rdf:li>India</rdf:li>
            <rdf:li>Moon</rdf:li>
            <rdf:li>Russia</rdf:li>
            <rdf:li>Sun</rdf:li>
            <rdf:li>bible</rdf:li>
            <rdf:li>cartoon</rdf:li>
            <rdf:li>clip art</rdf:li>
            <rdf:li>clipart</rdf:li>
            <rdf:li>clouds</rdf:li>
            <rdf:li>color</rdf:li>
            <rdf:li>colour</rdf:li>
            <rdf:li>colouring book</rdf:li>
            <rdf:li>creation</rdf:li>
            <rdf:li>crescent</rdf:li>
            <rdf:li>earth</rdf:li>
            <rdf:li>genesis</rdf:li>
            <rdf:li>globe</rdf:li>
            <rdf:li>image</rdf:li>
            <rdf:li>line art</rdf:li>
            <rdf:li>media</rdf:li>
            <rdf:li>moon</rdf:li>
            <rdf:li>nature</rdf:li>
            <rdf:li>planet</rdf:li>
            <rdf:li>png</rdf:li>
            <rdf:li>polar</rdf:li>
            <rdf:li>public domain</rdf:li>
            <rdf:li>solar</rdf:li>
            <rdf:li>star</rdf:li>
            <rdf:li>stars</rdf:li>
            <rdf:li>sun</rdf:li>
            <rdf:li>svg</rdf:li>
            <rdf:li>world</rdf:li>
          </rdf:Bag>
        </dc:subject>
      </cc:Work>
      <cc:License rdf:about="http://creativecommons.org/licenses/publicdomain/">
        <cc:permits rdf:resource="http://creativecommons.org/ns#Reproduction"/>
        <cc:permits rdf:resource="http://creativecommons.org/ns#Distribution"/>
        <cc:permits rdf:resource="http://creativecommons.org/ns#DerivativeWorks"/>
      </cc:License>
    </rdf:RDF>
  </metadata>
</svg>
